<svg width="1024" height="1024" viewBox="0 0 1024 1024" fill="none" xmlns="http://www.w3.org/2000/svg">
<rect x="184" y="335.625" width="313.295" height="78.9157" rx="39.4578" fill="#2D1D06"/>
<rect x="525.705" y="335.625" width="313.295" height="78.9157" rx="39.4578" fill="#2D1D06"/>
<rect x="525.705" y="447.686" width="313.295" height="78.9157" rx="39.4578" fill="#2D1D06"/>
<rect x="591.205" y="812.276" width="234.38" height="78.9157" rx="39.4578" transform="rotate(-90 591.205 812.276)" fill="#2D1D06"/>
<rect x="712.735" y="812.276" width="234.38" height="78.9157" rx="39.4578" transform="rotate(-90 712.735 812.276)" fill="#2D1D06"/>
<rect x="279.588" y="211" width="139.681" height="78.9157" rx="39.4578" transform="rotate(10.966 279.588 211)" fill="#2D1D06"/>
<rect x="271.514" y="447.624" width="139.681" height="78.9157" rx="39.4578" fill="#2D1D06"/>
<rect x="612.512" y="223.565" width="139.681" height="78.9157" rx="39.4578" fill="#2D1D06"/>
<rect x="271.596" y="547.119" width="139.681" height="78.9157" rx="39.4578" fill="#2D1D06"/>
<rect x="203.729" y="659.179" width="275.416" height="153.096" rx="64" fill="#2D1D06"/>
</svg>
